<svg width="20" height="16" viewBox="0 0 20 16" fill="none" xmlns="http://www.w3.org/2000/svg">
<path fill-rule="evenodd" clip-rule="evenodd" d="M6.42857 0C5.72096 0 5.16776 0.430214 4.8241 0.9457C4.47711 1.46617 4.28571 2.14406 4.28571 2.85714C4.28571 3.57023 4.47711 4.24811 4.8241 4.76859C5.16776 5.28407 5.72096 5.71429 6.42857 5.71429C7.13619 5.71429 7.68939 5.28407 8.03304 4.76859C8.38003 4.24811 8.57143 3.57023 8.57143 2.85714C8.57143 2.14406 8.38003 1.46617 8.03304 0.9457C7.68939 0.430214 7.13619 0 6.42857 0ZM13.5714 0C12.8638 0 12.3106 0.430214 11.967 0.9457C11.62 1.46617 11.4286 2.14406 11.4286 2.85714C11.4286 3.57023 11.62 4.24811 11.967 4.76859C12.3106 5.28407 12.8638 5.71429 13.5714 5.71429C14.279 5.71429 14.8323 5.28407 15.1759 4.76859C15.5229 4.24811 15.7143 3.57023 15.7143 2.85714C15.7143 2.14406 15.5229 1.46617 15.1759 0.9457C14.8323 0.430214 14.279 0 13.5714 0ZM2.14286 6.42857C1.43524 6.42857 0.882039 6.85879 0.538383 7.37427C0.191399 7.89474 0 8.57263 0 9.28572C0 9.9988 0.191399 10.6767 0.538383 11.1972C0.882039 11.7126 1.43524 12.1429 2.14286 12.1429C2.85047 12.1429 3.40367 11.7126 3.74733 11.1972C4.09431 10.6767 4.28571 9.9988 4.28571 9.28572C4.28571 8.57263 4.09431 7.89474 3.74733 7.37427C3.40367 6.85879 2.85047 6.42857 2.14286 6.42857ZM10 6.42857C8.2845 6.42857 7.01606 7.34814 6.20377 8.48939C5.40271 9.61489 5 11.0099 5 12.1429C5 13.463 5.79326 14.3807 6.7655 14.932C7.72334 15.4753 8.92369 15.7143 10 15.7143C11.0763 15.7143 12.2767 15.4753 13.2345 14.932C14.2067 14.3807 15 13.463 15 12.1429C15 11.0099 14.5973 9.61489 13.7962 8.48939C12.9839 7.34814 11.7155 6.42857 10 6.42857ZM17.8571 6.42857C17.1496 6.42857 16.5963 6.85879 16.2527 7.37427C15.9057 7.89474 15.7143 8.57263 15.7143 9.28572C15.7143 9.9988 15.9057 10.6767 16.2527 11.1972C16.5963 11.7126 17.1496 12.1429 17.8571 12.1429C18.5647 12.1429 19.118 11.7126 19.4616 11.1972C19.8086 10.6767 20 9.9988 20 9.28572C20 8.57263 19.8086 7.89474 19.4616 7.37427C19.118 6.85879 18.5647 6.42857 17.8571 6.42857Z" fill="#9282FA"/>
</svg>
