<svg width="19" height="18" viewBox="0 0 19 18" fill="none" xmlns="http://www.w3.org/2000/svg">
<path d="M8.3405 9.8246C5.29329 6.79473 6.39672 5.67864 6.40361 5.67175L2.22559 9.84977C2.91473 10.8886 3.81264 12.0034 4.9809 13.1653C6.15993 14.3375 7.31933 15.2076 8.41737 15.8504L12.5172 11.7506C12.5172 11.7506 11.3973 12.8641 8.3405 9.8246Z" fill="#9282FA" fill-opacity="0.4"/>
<path fill-rule="evenodd" clip-rule="evenodd" d="M12.5175 11.7502L12.9887 11.2818C13.6399 10.6342 14.6552 10.5012 15.4885 10.9541L17.4648 12.0285C18.734 12.7184 19.0137 14.4092 18.0217 15.3956L16.5522 16.8567C16.1786 17.2282 15.715 17.4997 15.1818 17.5494C13.9485 17.6645 11.4112 17.6024 8.4177 15.85L12.5175 11.7502ZM6.40394 5.67135L6.70057 5.37638C7.43152 4.64963 7.50039 3.48287 6.86271 2.63104L5.55828 0.888658C4.76906 -0.165605 3.24392 -0.304859 2.33936 0.594633L0.715652 2.20908C0.267094 2.65502 -0.0335017 3.23318 0.00299417 3.87459C0.06989 5.05267 0.471502 7.20473 2.22584 9.84945L6.40394 5.67135Z" fill="#9282FA"/>
</svg>
