<svg width="19" height="19" viewBox="0 0 19 19" fill="none" xmlns="http://www.w3.org/2000/svg">
<path d="M9.1979 6.05714C9.1979 7.79168 7.79175 9.19784 6.0572 9.19784C4.32266 9.19784 2.9165 7.79168 2.9165 6.05714C2.9165 4.3226 4.32258 2.91644 6.0572 2.91644C7.79182 2.91644 9.1979 4.32252 9.1979 6.05714Z" fill="#F09102"/>
<path fill-rule="evenodd" clip-rule="evenodd" d="M5.6084 0C5.98009 0 6.28148 0.301308 6.28148 0.672996V1.12171C6.28148 1.4934 5.98009 1.79471 5.6084 1.79471C5.23672 1.79471 4.93541 1.4934 4.93541 1.12171V0.672996C4.93541 0.301308 5.23672 0 5.6084 0ZM1.64295 1.64271C1.90578 1.37987 2.33185 1.37987 2.59469 1.64271L2.78857 1.83659C3.0514 2.09942 3.0514 2.5255 2.78857 2.78833C2.52573 3.05116 2.09966 3.05116 1.83682 2.78833L1.64295 2.59445C1.38011 2.33162 1.38011 1.90554 1.64295 1.64271ZM9.57386 1.64279C9.8367 1.90562 9.8367 2.33177 9.57386 2.59461L9.3799 2.78849C9.11707 3.05132 8.691 3.05132 8.42816 2.78849C8.16533 2.52565 8.16533 2.0995 8.42816 1.83667L8.62204 1.64279C8.88488 1.37995 9.31103 1.37995 9.57386 1.64279ZM0 5.6084C0 5.23672 0.301308 4.93541 0.672996 4.93541H1.12171C1.4934 4.93541 1.79471 5.23672 1.79471 5.6084C1.79471 5.98009 1.4934 6.28148 1.12171 6.28148H0.672996C0.301308 6.28148 0 5.98009 0 5.6084ZM2.78857 8.42856C3.0514 8.69139 3.0514 9.11755 2.78857 9.38038L2.59469 9.57418C2.33185 9.83701 1.90578 9.83701 1.64295 9.57418C1.38011 9.31135 1.38011 8.88519 1.64295 8.62244L1.83682 8.42856C2.09966 8.16572 2.52573 8.16572 2.78857 8.42856Z" fill="#F09102"/>
<path d="M13.4924 18.62C16.3243 18.62 18.6201 16.3512 18.6201 13.5525C18.6201 11.3345 17.1781 9.44923 15.1699 8.76262C14.8845 6.23095 12.7119 4.26239 10.0739 4.26239C7.24195 4.26239 4.9462 6.53115 4.9462 9.32977C4.9462 9.94877 5.05853 10.5419 5.26413 11.0902C5.02299 11.0434 4.77385 11.0189 4.51893 11.0189C2.39489 11.0189 0.673096 12.7205 0.673096 14.8194C0.673096 16.9184 2.39489 18.62 4.51885 18.62H13.4924Z" fill="#75501B"/>
</svg>
