<svg width="13" height="13" viewBox="0 0 13 13" fill="none" xmlns="http://www.w3.org/2000/svg">
<path d="M6.48375 7.94438L1.82863 12.6113C1.61324 12.825 1.36187 12.9319 1.07445 12.9319C0.787099 12.9319 0.5358 12.825 0.320625 12.6113C0.106875 12.3975 0 12.1481 0 11.8631C0 11.5781 0.106875 11.3288 0.320625 11.115L4.9875 6.44812L0.320625 1.82863C0.106875 1.61324 0 1.3618 0 1.07445C0 0.787099 0.106875 0.5358 0.320625 0.320625C0.534375 0.106875 0.78375 0 1.06875 0C1.35375 0 1.60313 0.106875 1.81688 0.320625L6.48375 4.9875L11.1032 0.320625C11.2949 0.106875 11.5404 0 11.8396 0C12.1389 0 12.3961 0.106875 12.6112 0.320625C12.825 0.534375 12.9319 0.78375 12.9319 1.06875C12.9319 1.35375 12.825 1.60313 12.6112 1.81688L7.94438 6.44812L12.6112 11.1032C12.825 11.3186 12.9319 11.5701 12.9319 11.8574C12.9319 12.1448 12.825 12.3961 12.6112 12.6113C12.3975 12.825 12.1481 12.9319 11.8631 12.9319C11.5781 12.9319 11.3288 12.825 11.115 12.6113L6.48375 7.94438Z" fill="#98959D"/>
</svg>
