<svg width="19" height="17" viewBox="0 0 19 17" fill="none" xmlns="http://www.w3.org/2000/svg">
<path d="M15.9589 8.01528V13.3029C15.9589 14.0083 15.6787 14.6848 15.1799 15.1835C14.6811 15.6824 14.0047 15.9625 13.2993 15.9625H5.32045C4.61507 15.9625 3.93858 15.6824 3.43981 15.1835C2.94104 14.6848 2.66083 14.0083 2.66083 13.3029V8.01528L7.31516 1.99956H11.3046L15.9589 8.01528Z" fill="#9282FA" fill-opacity="0.4"/>
<path d="M18.5944 8.39926L17.2297 1.08532C17.1964 0.907027 17.1269 0.737459 17.0256 0.587018C16.9243 0.436577 16.7933 0.308445 16.6406 0.210514C16.4879 0.112582 16.3169 0.0469134 16.1378 0.017545C15.9589 -0.0118159 15.7758 -0.00426783 15.5998 0.0397513L15.5741 0.0472325L11.209 1.33465H7.41072L3.04562 0.0513888L3.01985 0.0439075C2.8439 -0.000111595 2.66081 -0.00766712 2.48183 0.0217012C2.30285 0.0510696 2.13177 0.116738 1.97911 0.21467C1.82645 0.312602 1.69544 0.440733 1.59413 0.591174C1.49281 0.741616 1.42335 0.911183 1.39 1.08947L0.0252929 8.39926C-0.0330653 8.69198 0.0102562 8.99593 0.14808 9.26073C0.285912 9.52544 0.510008 9.7353 0.783282 9.8554C0.958289 9.93569 1.14844 9.97758 1.34097 9.97841C1.57142 9.97832 1.79761 9.91632 1.9959 9.79889V13.3029C1.9959 14.1847 2.34617 15.0303 2.96963 15.6537C3.5931 16.2772 4.4387 16.6274 5.32042 16.6274H13.2993C14.181 16.6274 15.0266 16.2772 15.65 15.6537C16.2736 15.0303 16.6238 14.1847 16.6238 13.3029V9.79972C16.8219 9.9169 17.0478 9.9789 17.2779 9.97924C17.4706 9.97866 17.661 9.93701 17.8364 9.85706C18.11 9.73688 18.3343 9.52685 18.4722 9.26164C18.61 8.99651 18.6532 8.69223 18.5944 8.39926ZM1.33099 8.6486L2.69654 1.33465L6.19311 2.36276L1.33099 8.6486ZM13.2993 15.2976H9.97475V14.2429L11.1101 13.1084C11.2348 12.9837 11.3049 12.8145 11.3049 12.638C11.3049 12.4616 11.2348 12.2924 11.1101 12.1676C10.9853 12.0429 10.8161 11.9728 10.6397 11.9728C10.4632 11.9728 10.294 12.0429 10.1692 12.1676L9.30985 13.0278L8.45046 12.1676C8.32571 12.0429 8.15649 11.9728 7.98004 11.9728C7.8036 11.9728 7.63438 12.0429 7.50962 12.1676C7.38487 12.2924 7.31472 12.4616 7.31472 12.638C7.31472 12.8145 7.38487 12.9837 7.50962 13.1084L8.64495 14.2429V15.2976H5.32042C4.79139 15.2976 4.28402 15.0874 3.90995 14.7134C3.53587 14.3393 3.3257 13.8319 3.3257 13.3029V8.24218L7.64178 2.66446H10.9779L15.294 8.24218V13.3029C15.294 13.8319 15.0838 14.3393 14.7097 14.7134C14.3357 15.0874 13.8283 15.2976 13.2993 15.2976ZM17.2887 8.6486L12.4266 2.36276L15.9232 1.33465L17.2887 8.6486ZM7.31514 9.64595C7.31514 9.84318 7.25663 10.036 7.14709 10.2001C7.03746 10.364 6.88169 10.4919 6.69945 10.5674C6.51721 10.6429 6.31667 10.6626 6.1232 10.6241C5.92974 10.5856 5.75203 10.4906 5.61254 10.3512C5.47306 10.2117 5.37807 10.034 5.33959 9.84052C5.3011 9.64703 5.32085 9.44648 5.39634 9.2643C5.47183 9.08203 5.59966 8.92628 5.76368 8.81665C5.92769 8.70711 6.12052 8.6486 6.31777 8.6486C6.58229 8.6486 6.83598 8.75366 7.023 8.94074C7.21008 9.12775 7.31514 9.38141 7.31514 9.64595ZM13.2993 9.64595C13.2993 9.84318 13.2408 10.036 13.1312 10.2001C13.0216 10.364 12.8658 10.4919 12.6836 10.5674C12.5013 10.6429 12.3008 10.6626 12.1074 10.6241C11.9139 10.5856 11.7362 10.4906 11.5967 10.3512C11.4572 10.2117 11.3622 10.034 11.3237 9.84052C11.2852 9.64703 11.305 9.44648 11.3805 9.2643C11.456 9.08203 11.5838 8.92628 11.7478 8.81665C11.9118 8.70711 12.1047 8.6486 12.3019 8.6486C12.5665 8.6486 12.8201 8.75366 13.0071 8.94074C13.1942 9.12775 13.2993 9.38141 13.2993 9.64595Z" fill="#9282FA"/>
</svg>
