<svg width="19" height="19" viewBox="0 0 19 19" fill="none" xmlns="http://www.w3.org/2000/svg">
<path d="M2.59814 15.3723C2.59814 15.0136 2.88892 14.7228 3.24763 14.7228H15.3723C15.731 14.7228 16.0218 15.0136 16.0218 15.3723C16.0218 15.731 15.731 16.0218 15.3723 16.0218H3.24763C2.88892 16.0218 2.59814 15.731 2.59814 15.3723Z" fill="#027DF0"/>
<path d="M3.46411 9.31C3.46411 10.3301 3.72576 11.2896 4.18524 12.1246H14.4346C14.8941 11.2896 15.1558 10.3301 15.1558 9.31C15.1558 6.08142 12.5384 3.46417 9.30994 3.46417C6.08136 3.46417 3.46411 6.08142 3.46411 9.31Z" fill="#027DF0"/>
<path fill-rule="evenodd" clip-rule="evenodd" d="M5.19629 17.9704C5.19629 17.6117 5.48715 17.321 5.84585 17.321H12.7742C13.1329 17.321 13.4238 17.6117 13.4238 17.9704C13.4238 18.3291 13.1329 18.62 12.7742 18.62H5.84585C5.48715 18.62 5.19629 18.3292 5.19629 17.9704Z" fill="#16487A"/>
<path fill-rule="evenodd" clip-rule="evenodd" d="M9.31 0C9.6687 0 9.95956 0.290779 9.95956 0.649562V1.51557C9.95956 1.87427 9.6687 2.16513 9.31 2.16513C8.9513 2.16513 8.66044 1.87427 8.66044 1.51557V0.649562C8.66044 0.290779 8.9513 0 9.31 0ZM0 9.31C0 8.9513 0.290779 8.66044 0.649562 8.66044H1.51557C1.87427 8.66044 2.16513 8.9513 2.16513 9.31C2.16513 9.6687 1.87427 9.95956 1.51557 9.95956H0.649562C0.290779 9.95956 0 9.6687 0 9.31ZM16.4549 9.31C16.4549 8.9513 16.7457 8.66044 17.1044 8.66044H17.9704C18.3292 8.66044 18.62 8.9513 18.62 9.31C18.62 9.6687 18.3292 9.95956 17.9704 9.95956H17.1044C16.7457 9.95956 16.4549 9.6687 16.4549 9.31Z" fill="#16487A"/>
<path fill-rule="evenodd" clip-rule="evenodd" d="M4.1853 12.1246H0.649562C0.290779 12.1246 0 12.4155 0 12.7742C0 13.1329 0.290779 13.4237 0.649562 13.4237H17.9704C18.3292 13.4237 18.62 13.1329 18.62 12.7742C18.62 12.4155 18.3292 12.1246 17.9704 12.1246H4.1853Z" fill="#16487A"/>
<path d="M2.72661 2.72664C2.98026 2.47299 3.39154 2.47299 3.64519 2.72664L3.98536 3.06682C4.23901 3.32047 4.23901 3.73175 3.98536 3.98539C3.73171 4.23904 3.32044 4.23904 3.06679 3.98539L2.72661 3.64522C2.47296 3.39157 2.47296 2.9803 2.72661 2.72664Z" fill="#027DF0"/>
<path d="M15.8927 2.72664C16.1463 2.9803 16.1463 3.39157 15.8927 3.64522L15.5525 3.98539C15.2988 4.23904 14.8876 4.23904 14.6339 3.98539C14.3802 3.73175 14.3802 3.32047 14.6339 3.06682L14.9741 2.72664C15.2277 2.47299 15.639 2.47299 15.8927 2.72664Z" fill="#027DF0"/>
</svg>
